<svg width="32" height="32" viewBox="0 0 32 32" fill="none" xmlns="http://www.w3.org/2000/svg">
<path d="M28.0001 16.0006C28.0001 16.2658 27.8947 16.5201 27.7072 16.7077C27.5196 16.8952 27.2653 17.0006 27.0001 17.0006H7.4138L14.7076 24.2931C14.8005 24.386 14.8742 24.4963 14.9244 24.6177C14.9747 24.7391 15.0006 24.8692 15.0006 25.0006C15.0006 25.132 14.9747 25.2621 14.9244 25.3835C14.8742 25.5048 14.8005 25.6151 14.7076 25.7081C14.6146 25.801 14.5043 25.8747 14.383 25.9249C14.2616 25.9752 14.1314 26.0011 14.0001 26.0011C13.8687 26.0011 13.7386 25.9752 13.6172 25.9249C13.4958 25.8747 13.3855 25.801 13.2926 25.7081L4.29255 16.7081C4.19958 16.6152 4.12582 16.5049 4.07549 16.3835C4.02517 16.2621 3.99927 16.132 3.99927 16.0006C3.99927 15.8691 4.02517 15.739 4.07549 15.6176C4.12582 15.4962 4.19958 15.3859 4.29255 15.2931L13.2926 6.29306C13.4802 6.10542 13.7347 6 14.0001 6C14.2654 6 14.5199 6.10542 14.7076 6.29306C14.8952 6.4807 15.0006 6.73519 15.0006 7.00056C15.0006 7.26592 14.8952 7.52042 14.7076 7.70806L7.4138 15.0006H27.0001C27.2653 15.0006 27.5196 15.1059 27.7072 15.2934C27.8947 15.481 28.0001 15.7353 28.0001 16.0006Z" fill="black"/>
</svg>
