<svg width="113" height="22" viewBox="0 0 113 22" fill="none" xmlns="http://www.w3.org/2000/svg">
<g clip-path="url(#clip0_2_150)">
<path d="M109.96 21.336C109.325 21.336 108.784 21.1213 108.336 20.692C107.906 20.244 107.692 19.7027 107.692 19.068C107.692 18.4333 107.906 17.9013 108.336 17.472C108.784 17.024 109.325 16.8 109.96 16.8C110.594 16.8 111.126 17.024 111.556 17.472C112.004 17.9013 112.228 18.4333 112.228 19.068C112.228 19.7027 112.004 20.244 111.556 20.692C111.126 21.1213 110.594 21.336 109.96 21.336Z" fill="black"/>
<path d="M100.744 21.336C99.9413 21.336 99.2413 21.1493 98.644 20.776C98.0466 20.4027 97.748 19.7027 97.748 18.676V8.848H95.788C95.4893 8.848 95.34 8.69866 95.34 8.4V8.316C95.34 8.18533 95.3773 8.092 95.452 8.036C95.5453 7.96133 95.6573 7.90533 95.788 7.868C96.8706 7.49466 97.7013 6.93466 98.28 6.188C98.8773 5.42266 99.2506 4.35866 99.4 2.996C99.4 2.69733 99.5493 2.548 99.848 2.548H100.324C100.436 2.548 100.539 2.59466 100.632 2.688C100.725 2.76266 100.772 2.86533 100.772 2.996V7.756H104.188C104.487 7.756 104.636 7.896 104.636 8.176V8.4C104.636 8.69866 104.487 8.848 104.188 8.848H100.772V17.696C100.772 18.7227 101.304 19.236 102.368 19.236C102.872 19.236 103.32 19.0867 103.712 18.788C104.123 18.4893 104.431 18.144 104.636 17.752C104.785 17.472 105.019 17.4253 105.336 17.612C105.467 17.6867 105.532 17.78 105.532 17.892C105.532 18.004 105.504 18.1347 105.448 18.284C105.131 19.0867 104.58 19.796 103.796 20.412C103.031 21.028 102.013 21.336 100.744 21.336Z" fill="black"/>
<path d="M79.6005 21C79.3205 21 79.1805 20.8413 79.1805 20.524C79.1805 20.2253 79.3205 20.076 79.6005 20.076C80.2351 20.076 80.6645 19.936 80.8885 19.656C81.1311 19.376 81.2525 18.9 81.2525 18.228V10.164C81.2525 9.79066 81.2245 9.50133 81.1685 9.296C81.1125 9.072 80.9631 8.94133 80.7205 8.904C80.5898 8.86666 80.3938 8.83866 80.1325 8.82C79.8711 8.78266 79.6751 8.75467 79.5445 8.736C79.2831 8.69866 79.1525 8.54933 79.1525 8.288C79.1525 7.98933 79.2925 7.84 79.5725 7.84C79.6285 7.84 79.8431 7.83066 80.2165 7.812C80.5898 7.79333 81.0098 7.784 81.4765 7.784C81.9431 7.76533 82.3725 7.756 82.7645 7.756C83.1565 7.756 83.4085 7.756 83.5205 7.756C83.9871 7.77466 84.2205 8.01733 84.2205 8.484V10.052C84.4818 9.62266 84.8271 9.212 85.2565 8.82C85.7045 8.40933 86.2365 8.07333 86.8525 7.812C87.4685 7.55067 88.1498 7.42 88.8965 7.42C89.5871 7.42 90.2218 7.55067 90.8005 7.812C91.3791 8.07333 91.8458 8.512 92.2005 9.128C92.5551 9.744 92.7325 10.5933 92.7325 11.676V18.172C92.7325 18.8813 92.8351 19.376 93.0405 19.656C93.2645 19.936 93.6098 20.076 94.0765 20.076C94.3565 20.076 94.4965 20.2253 94.4965 20.524C94.4965 20.8413 94.3565 21 94.0765 21C93.9458 21 93.7125 20.9907 93.3765 20.972C93.0405 20.9533 92.6765 20.944 92.2845 20.944C91.8925 20.9253 91.5285 20.916 91.1925 20.916C90.8751 20.916 90.5205 20.9253 90.1285 20.944C89.7365 20.944 89.3725 20.9533 89.0365 20.972C88.7191 20.9907 88.4858 21 88.3365 21C88.0565 21 87.9165 20.8413 87.9165 20.524C87.9165 20.2253 88.0565 20.076 88.3365 20.076C88.9151 20.076 89.2885 19.936 89.4565 19.656C89.6245 19.376 89.7085 18.9 89.7085 18.228V12.068C89.7085 11.004 89.5125 10.2573 89.1205 9.828C88.7285 9.38 88.1778 9.156 87.4685 9.156C86.9458 9.156 86.4325 9.324 85.9285 9.66C85.4431 9.97733 85.0418 10.4067 84.7245 10.948C84.4258 11.4893 84.2765 12.0867 84.2765 12.74V18.172C84.2765 18.8813 84.3791 19.376 84.5845 19.656C84.7898 19.936 85.0978 20.076 85.5085 20.076C85.8071 20.076 85.9565 20.2253 85.9565 20.524C85.9565 20.8413 85.8071 21 85.5085 21C85.3031 21 84.9111 20.9907 84.3325 20.972C83.7725 20.9347 83.2498 20.916 82.7645 20.916C82.4471 20.916 82.0645 20.9253 81.6165 20.944C81.1685 20.944 80.7578 20.9533 80.3845 20.972C80.0111 20.9907 79.7498 21 79.6005 21Z" fill="black"/>
<path d="M71.4435 21.336C69.3155 21.336 67.6449 20.7573 66.4315 19.6C65.2369 18.4427 64.6395 16.7813 64.6395 14.616C64.6395 13.2533 64.9102 12.0307 65.4515 10.948C65.9929 9.86533 66.7582 9.00666 67.7475 8.372C68.7555 7.73733 69.9222 7.42 71.2475 7.42C72.2555 7.42 73.1329 7.616 73.8795 8.008C74.6262 8.4 75.2422 8.91333 75.7275 9.548C76.2129 10.1827 76.5769 10.8733 76.8195 11.62C77.0622 12.348 77.1835 13.0667 77.1835 13.776C77.1835 14.0747 76.9969 14.224 76.6235 14.224H67.9435C67.9062 15.6427 68.0275 16.7533 68.3075 17.556C68.6062 18.3587 69.0449 18.9187 69.6235 19.236C70.2022 19.5533 70.9022 19.712 71.7235 19.712C72.6755 19.712 73.5249 19.5067 74.2715 19.096C75.0369 18.6853 75.6622 18.172 76.1475 17.556C76.3529 17.3133 76.5862 17.276 76.8475 17.444C77.1089 17.612 77.1462 17.836 76.9595 18.116C76.5862 18.676 76.1569 19.1987 75.6715 19.684C75.2049 20.1693 74.6262 20.5707 73.9355 20.888C73.2635 21.1867 72.4329 21.336 71.4435 21.336ZM67.9995 13.132H73.8235C73.8609 12.236 73.7955 11.4333 73.6275 10.724C73.4782 10.0147 73.2075 9.45466 72.8155 9.044C72.4422 8.63333 71.9009 8.428 71.1915 8.428C70.2955 8.428 69.5955 8.85733 69.0915 9.716C68.5875 10.556 68.2235 11.6947 67.9995 13.132Z" fill="black"/>
<path d="M40.9364 21C40.6564 21 40.5164 20.8413 40.5164 20.524C40.5164 20.2253 40.6564 20.076 40.9364 20.076C41.5711 20.076 42.0004 19.936 42.2244 19.656C42.4671 19.376 42.5884 18.9 42.5884 18.228V10.164C42.5884 9.772 42.5604 9.464 42.5044 9.24C42.4484 9.016 42.2991 8.89466 42.0564 8.876C41.9257 8.85733 41.7297 8.82933 41.4684 8.792C41.2071 8.75466 41.0111 8.72666 40.8804 8.708C40.6191 8.67066 40.4884 8.52133 40.4884 8.26C40.4884 7.96133 40.6284 7.812 40.9084 7.812C40.9644 7.812 41.1697 7.812 41.5244 7.812C41.8977 7.79333 42.3084 7.784 42.7564 7.784C43.2231 7.784 43.6431 7.784 44.0164 7.784C44.4084 7.76533 44.6604 7.756 44.7724 7.756C45.2391 7.756 45.4724 7.99866 45.4724 8.484V9.94C45.6964 9.56667 45.9671 9.19333 46.2844 8.82C46.6204 8.428 47.0217 8.10133 47.4884 7.84C47.9737 7.56 48.5617 7.42 49.2524 7.42C49.8497 7.42 50.4377 7.51333 51.0164 7.7C51.5951 7.868 52.0897 8.15733 52.5004 8.568C52.9297 8.97866 53.1911 9.548 53.2844 10.276C53.4151 9.97733 53.6204 9.604 53.9004 9.156C54.1991 8.708 54.6191 8.30666 55.1604 7.952C55.7017 7.59733 56.3924 7.42 57.2324 7.42C58.5204 7.42 59.5284 7.756 60.2564 8.428C60.9844 9.1 61.3484 10.1827 61.3484 11.676V18.172C61.3484 18.8813 61.4511 19.376 61.6564 19.656C61.8617 19.936 62.1417 20.076 62.4964 20.076C62.7951 20.076 62.9444 20.2253 62.9444 20.524C62.9444 20.8413 62.7951 21 62.4964 21C62.2911 21 61.9177 20.9907 61.3764 20.972C60.8351 20.9347 60.3217 20.916 59.8364 20.916C59.5191 20.916 59.1551 20.9253 58.7444 20.944C58.3524 20.944 57.9884 20.9533 57.6524 20.972C57.3164 20.9907 57.0737 21 56.9244 21C56.6444 21 56.5044 20.8413 56.5044 20.524C56.5044 20.2253 56.6444 20.076 56.9244 20.076C57.4471 20.076 57.8111 19.936 58.0164 19.656C58.2217 19.376 58.3244 18.9 58.3244 18.228V12.152C58.3244 11.0507 58.1564 10.2853 57.8204 9.856C57.4844 9.42666 56.9617 9.212 56.2524 9.212C55.7297 9.212 55.2537 9.38933 54.8244 9.744C54.4137 10.0987 54.0777 10.5747 53.8164 11.172C53.5737 11.7693 53.4524 12.4227 53.4524 13.132V18.172C53.4524 18.8813 53.5644 19.376 53.7884 19.656C54.0311 19.936 54.3857 20.076 54.8524 20.076C55.1511 20.076 55.3004 20.2253 55.3004 20.524C55.3004 20.8413 55.1511 21 54.8524 21C54.7217 21 54.4791 20.9907 54.1244 20.972C53.7884 20.9533 53.4244 20.944 53.0324 20.944C52.6404 20.9253 52.2764 20.916 51.9404 20.916C51.6231 20.916 51.2497 20.9253 50.8204 20.944C50.3911 20.944 49.9991 20.9533 49.6444 20.972C49.2897 20.9907 49.0377 21 48.8884 21C48.6084 21 48.4684 20.8413 48.4684 20.524C48.4684 20.2253 48.6084 20.076 48.8884 20.076C49.4857 20.076 49.8871 19.936 50.0924 19.656C50.3164 19.376 50.4284 18.9 50.4284 18.228V12.152C50.4284 11.088 50.2417 10.3227 49.8684 9.856C49.4951 9.38933 48.9537 9.156 48.2444 9.156C47.4604 9.156 46.8257 9.48266 46.3404 10.136C45.8551 10.7707 45.6124 11.5733 45.6124 12.544V18.172C45.6124 18.8813 45.7337 19.376 45.9764 19.656C46.2191 19.936 46.5924 20.076 47.0964 20.076C47.3764 20.076 47.5164 20.2253 47.5164 20.524C47.5164 20.8413 47.3764 21 47.0964 21C46.9657 21 46.7231 20.9907 46.3684 20.972C46.0137 20.9533 45.6311 20.944 45.2204 20.944C44.8097 20.9253 44.4364 20.916 44.1004 20.916C43.7831 20.916 43.4004 20.9253 42.9524 20.944C42.5044 20.944 42.0937 20.9533 41.7204 20.972C41.3471 20.9907 41.0857 21 40.9364 21Z" fill="black"/>
<path d="M31.4606 21.336C30.2473 21.336 29.2393 21.056 28.4366 20.496C27.6526 19.936 27.2606 19.0027 27.2606 17.696C27.2606 16.5947 27.5966 15.6893 28.2686 14.98C28.9593 14.252 29.9206 13.72 31.1526 13.384C32.3846 13.0293 33.822 12.8613 35.4646 12.88V11.788C35.4646 10.78 35.2873 9.98666 34.9326 9.408C34.578 8.81066 34.0086 8.512 33.2246 8.512C32.4966 8.512 31.946 8.652 31.5726 8.932C31.1993 9.19333 31.106 9.53866 31.2926 9.968C31.5913 10.6027 31.582 11.172 31.2646 11.676C30.9473 12.1613 30.406 12.404 29.6406 12.404C29.174 12.404 28.782 12.2547 28.4646 11.956C28.1473 11.6387 27.9886 11.2 27.9886 10.64C27.9886 10.08 28.222 9.55733 28.6886 9.072C29.1553 8.58666 29.79 8.19466 30.5926 7.896C31.414 7.57866 32.338 7.42 33.3646 7.42C35.0633 7.42 36.342 7.79333 37.2006 8.54C38.0593 9.28666 38.4886 10.3133 38.4886 11.62V17.556C38.4886 18.3027 38.5633 18.788 38.7126 19.012C38.8806 19.2173 39.086 19.32 39.3286 19.32C39.5153 19.32 39.674 19.292 39.8046 19.236C39.954 19.1613 40.066 19.0867 40.1406 19.012C40.346 18.8067 40.5513 18.816 40.7566 19.04C40.85 19.1333 40.8873 19.236 40.8686 19.348C40.85 19.46 40.8033 19.572 40.7286 19.684C40.4673 20.1133 40.1406 20.4773 39.7486 20.776C39.3753 21.056 38.918 21.196 38.3766 21.196C37.686 21.196 37.098 21.0187 36.6126 20.664C36.146 20.3093 35.8193 19.7587 35.6326 19.012C35.2966 19.628 34.8113 20.1693 34.1766 20.636C33.5606 21.1027 32.6553 21.336 31.4606 21.336ZM32.8606 19.656C33.402 19.656 33.8686 19.5067 34.2606 19.208C34.6526 18.8907 34.9513 18.5173 35.1566 18.088C35.362 17.6587 35.4646 17.248 35.4646 16.856V13.86C33.99 13.8227 32.8046 14.056 31.9086 14.56C31.0126 15.064 30.5646 15.9507 30.5646 17.22C30.5646 17.948 30.7046 18.4893 30.9846 18.844C31.2646 19.18 31.582 19.404 31.9366 19.516C32.31 19.6093 32.618 19.656 32.8606 19.656Z" fill="black"/>
<path d="M10.3934 21C10.1134 21 9.97343 20.8413 9.97343 20.524C9.97343 20.2253 10.1134 20.076 10.3934 20.076C11.0281 20.076 11.4574 19.936 11.6814 19.656C11.9241 19.376 12.0454 18.9 12.0454 18.228V10.164C12.0454 9.79066 12.0174 9.50133 11.9614 9.296C11.9054 9.072 11.7561 8.94133 11.5134 8.904C11.3828 8.86666 11.1868 8.83866 10.9254 8.82C10.6641 8.78266 10.4681 8.75467 10.3374 8.736C10.0761 8.69866 9.94543 8.54933 9.94543 8.288C9.94543 7.98933 10.0854 7.84 10.3654 7.84C10.4214 7.84 10.6361 7.83066 11.0094 7.812C11.3828 7.79333 11.8028 7.784 12.2694 7.784C12.7361 7.76533 13.1654 7.756 13.5574 7.756C13.9494 7.756 14.2014 7.756 14.3134 7.756C14.7801 7.77466 15.0134 8.01733 15.0134 8.484V10.052C15.2748 9.62266 15.6201 9.212 16.0494 8.82C16.4974 8.40933 17.0294 8.07333 17.6454 7.812C18.2614 7.55067 18.9428 7.42 19.6894 7.42C20.3801 7.42 21.0148 7.55067 21.5934 7.812C22.1721 8.07333 22.6388 8.512 22.9934 9.128C23.3481 9.744 23.5254 10.5933 23.5254 11.676V18.172C23.5254 18.8813 23.6281 19.376 23.8334 19.656C24.0574 19.936 24.4028 20.076 24.8694 20.076C25.1494 20.076 25.2894 20.2253 25.2894 20.524C25.2894 20.8413 25.1494 21 24.8694 21C24.7388 21 24.5054 20.9907 24.1694 20.972C23.8334 20.9533 23.4694 20.944 23.0774 20.944C22.6854 20.9253 22.3214 20.916 21.9854 20.916C21.6681 20.916 21.3134 20.9253 20.9214 20.944C20.5294 20.944 20.1654 20.9533 19.8294 20.972C19.5121 20.9907 19.2788 21 19.1294 21C18.8494 21 18.7094 20.8413 18.7094 20.524C18.7094 20.2253 18.8494 20.076 19.1294 20.076C19.7081 20.076 20.0814 19.936 20.2494 19.656C20.4174 19.376 20.5014 18.9 20.5014 18.228V12.068C20.5014 11.004 20.3054 10.2573 19.9134 9.828C19.5214 9.38 18.9708 9.156 18.2614 9.156C17.7388 9.156 17.2254 9.324 16.7214 9.66C16.2361 9.97733 15.8348 10.4067 15.5174 10.948C15.2188 11.4893 15.0694 12.0867 15.0694 12.74V18.172C15.0694 18.8813 15.1721 19.376 15.3774 19.656C15.5828 19.936 15.8908 20.076 16.3014 20.076C16.6001 20.076 16.7494 20.2253 16.7494 20.524C16.7494 20.8413 16.6001 21 16.3014 21C16.0961 21 15.7041 20.9907 15.1254 20.972C14.5654 20.9347 14.0428 20.916 13.5574 20.916C13.2401 20.916 12.8574 20.9253 12.4094 20.944C11.9614 20.944 11.5508 20.9533 11.1774 20.972C10.8041 20.9907 10.5428 21 10.3934 21Z" fill="black"/>
<path d="M1.45597 21C1.1573 21 1.00797 20.8507 1.00797 20.552C1.00797 20.2347 1.1573 20.076 1.45597 20.076C2.1653 20.076 2.6413 19.9267 2.88397 19.628C3.12663 19.3293 3.24797 18.844 3.24797 18.172V10.22C3.24797 9.69733 3.19197 9.352 3.07997 9.184C2.98663 8.99733 2.8093 8.89467 2.54797 8.876C2.4173 8.85733 2.1933 8.83867 1.87597 8.82C1.5773 8.78267 1.36263 8.75467 1.23197 8.736C0.970633 8.68 0.839966 8.52133 0.839966 8.26C0.839966 7.96133 0.979966 7.812 1.25997 7.812C1.31597 7.812 1.5493 7.812 1.95997 7.812C2.37063 7.79333 2.82797 7.784 3.33197 7.784C3.85463 7.784 4.33063 7.784 4.75997 7.784C5.1893 7.76533 5.45997 7.756 5.57197 7.756C6.03863 7.756 6.27197 7.97067 6.27197 8.4V18.172C6.27197 18.844 6.38397 19.3293 6.60797 19.628C6.83197 19.9267 7.24263 20.076 7.83997 20.076C8.11997 20.076 8.25997 20.2347 8.25997 20.552C8.25997 20.8507 8.11997 21 7.83997 21C7.7093 21 7.4573 20.9907 7.08397 20.972C6.71063 20.9533 6.3093 20.944 5.87997 20.944C5.45063 20.9253 5.06797 20.916 4.73197 20.916C4.41463 20.916 4.02263 20.9253 3.55597 20.944C3.0893 20.944 2.65063 20.9533 2.23997 20.972C1.84797 20.9907 1.58663 21 1.45597 21ZM4.53597 4.704C3.97597 4.704 3.49997 4.508 3.10797 4.116C2.71597 3.724 2.51997 3.248 2.51997 2.688C2.51997 2.128 2.71597 1.652 3.10797 1.26C3.49997 0.868 3.97597 0.672001 4.53597 0.672001C5.09597 0.672001 5.57197 0.868 5.96397 1.26C6.35597 1.652 6.55197 2.128 6.55197 2.688C6.55197 3.248 6.35597 3.724 5.96397 4.116C5.57197 4.508 5.09597 4.704 4.53597 4.704Z" fill="black"/>
</g>
<defs>
<clipPath id="clip0_2_150">
<rect width="113" height="22" fill="white"/>
</clipPath>
</defs>
</svg>
