<svg width="71" height="13" viewBox="0 0 71 13" fill="none" xmlns="http://www.w3.org/2000/svg">
<path d="M68.6439 12.9991C68.2446 12.9991 67.9041 12.8641 67.6223 12.594C67.3522 12.3121 67.2172 11.9716 67.2172 11.5724C67.2172 11.1731 67.3522 10.8384 67.6223 10.5684C67.9041 10.2865 68.2446 10.1456 68.6439 10.1456C69.0431 10.1456 69.3778 10.2865 69.6479 10.5684C69.9297 10.8384 70.0706 11.1731 70.0706 11.5724C70.0706 11.9716 69.9297 12.3121 69.6479 12.594C69.3778 12.8641 69.0431 12.9991 68.6439 12.9991Z" fill="#757575"/>
<path d="M62.8466 12.9992C62.3417 12.9992 61.9014 12.8817 61.5256 12.6469C61.1498 12.412 60.9619 11.9717 60.9619 11.3258V5.14332H59.729C59.5411 5.14332 59.4471 5.04938 59.4471 4.8615V4.80866C59.4471 4.72646 59.4706 4.66774 59.5176 4.63252C59.5763 4.58554 59.6468 4.55032 59.729 4.52683C60.41 4.29198 60.9326 3.9397 61.2966 3.46999C61.6724 2.98854 61.9072 2.31921 62.0012 1.462C62.0012 1.27412 62.0951 1.18018 62.283 1.18018H62.5824C62.6529 1.18018 62.7175 1.20953 62.7762 1.26825C62.8349 1.31522 62.8643 1.3798 62.8643 1.462V4.45637H65.0132C65.201 4.45637 65.295 4.54444 65.295 4.72058V4.8615C65.295 5.04938 65.201 5.14332 65.0132 5.14332H62.8643V10.7093C62.8643 11.3552 63.1989 11.6781 63.8683 11.6781C64.1853 11.6781 64.4671 11.5842 64.7137 11.3963C64.9721 11.2084 65.1658 10.9912 65.295 10.7446C65.3889 10.5684 65.5357 10.5391 65.7353 10.6565C65.8175 10.7035 65.8586 10.7622 65.8586 10.8326C65.8586 10.9031 65.841 10.9853 65.8058 11.0792C65.6062 11.5842 65.2598 12.0304 64.7666 12.4179C64.2851 12.8054 63.6451 12.9992 62.8466 12.9992Z" fill="#757575"/>
<path d="M49.5459 12.7878C49.3697 12.7878 49.2817 12.688 49.2817 12.4883C49.2817 12.3005 49.3697 12.2065 49.5459 12.2065C49.9451 12.2065 50.2152 12.1184 50.3561 11.9423C50.5088 11.7662 50.5851 11.4667 50.5851 11.044V5.97116C50.5851 5.73631 50.5675 5.5543 50.5322 5.42513C50.497 5.28422 50.4031 5.20202 50.2504 5.17854C50.1682 5.15505 50.0449 5.13744 49.8805 5.12569C49.7161 5.10221 49.5928 5.08459 49.5106 5.07285C49.3462 5.04937 49.264 4.95543 49.264 4.79103C49.264 4.60315 49.3521 4.5092 49.5283 4.5092C49.5635 4.5092 49.6985 4.50333 49.9334 4.49159C50.1682 4.47985 50.4324 4.47398 50.726 4.47398C51.0196 4.46223 51.2896 4.45636 51.5362 4.45636C51.7828 4.45636 51.9414 4.45636 52.0118 4.45636C52.3054 4.4681 52.4522 4.62076 52.4522 4.91433V5.90071C52.6166 5.63063 52.8338 5.37229 53.1039 5.12569C53.3857 4.86736 53.7204 4.65599 54.1079 4.49159C54.4954 4.32719 54.924 4.245 55.3937 4.245C55.8282 4.245 56.2274 4.32719 56.5915 4.49159C56.9555 4.65599 57.249 4.93194 57.4722 5.31945C57.6953 5.70695 57.8068 6.24125 57.8068 6.92232V11.0088C57.8068 11.455 57.8714 11.7662 58.0006 11.9423C58.1415 12.1184 58.3587 12.2065 58.6523 12.2065C58.8284 12.2065 58.9165 12.3005 58.9165 12.4883C58.9165 12.688 58.8284 12.7878 58.6523 12.7878C58.5701 12.7878 58.4233 12.7819 58.2119 12.7702C58.0006 12.7584 57.7716 12.7525 57.525 12.7525C57.2784 12.7408 57.0494 12.7349 56.838 12.7349C56.6384 12.7349 56.4153 12.7408 56.1687 12.7525C55.9221 12.7525 55.6931 12.7584 55.4818 12.7702C55.2821 12.7819 55.1354 12.7878 55.0414 12.7878C54.8653 12.7878 54.7772 12.688 54.7772 12.4883C54.7772 12.3005 54.8653 12.2065 55.0414 12.2065C55.4054 12.2065 55.6403 12.1184 55.746 11.9423C55.8517 11.7662 55.9045 11.4667 55.9045 11.044V7.16892C55.9045 6.49958 55.7812 6.02988 55.5346 5.7598C55.288 5.47797 54.9416 5.33706 54.4954 5.33706C54.1666 5.33706 53.8437 5.44275 53.5266 5.65411C53.2213 5.85374 52.9688 6.12382 52.7692 6.46436C52.5813 6.80489 52.4874 7.18066 52.4874 7.59165V11.0088C52.4874 11.455 52.552 11.7662 52.6812 11.9423C52.8103 12.1184 53.0041 12.2065 53.2624 12.2065C53.4503 12.2065 53.5442 12.3005 53.5442 12.4883C53.5442 12.688 53.4503 12.7878 53.2624 12.7878C53.1332 12.7878 52.8866 12.7819 52.5226 12.7702C52.1703 12.7467 51.8416 12.7349 51.5362 12.7349C51.3366 12.7349 51.0959 12.7408 50.8141 12.7525C50.5322 12.7525 50.2739 12.7584 50.0391 12.7702C49.8042 12.7819 49.6398 12.7878 49.5459 12.7878Z" fill="#757575"/>
<path d="M44.4146 12.9991C43.0759 12.9991 42.025 12.6351 41.2617 11.9071C40.5102 11.179 40.1344 10.1339 40.1344 8.77179C40.1344 7.91457 40.3047 7.14543 40.6452 6.46436C40.9857 5.78328 41.4672 5.24312 42.0895 4.84387C42.7236 4.44462 43.4576 4.245 44.2913 4.245C44.9254 4.245 45.4773 4.36829 45.947 4.61489C46.4167 4.86148 46.8042 5.18441 47.1095 5.58366C47.4148 5.98291 47.6438 6.41738 47.7965 6.88709C47.9491 7.34505 48.0255 7.79715 48.0255 8.24337C48.0255 8.43125 47.908 8.52519 47.6732 8.52519H42.2128C42.1894 9.41763 42.2657 10.1163 42.4418 10.6213C42.6297 11.1262 42.9057 11.4785 43.2697 11.6781C43.6337 11.8777 44.0741 11.9775 44.5907 11.9775C45.1896 11.9775 45.7239 11.8484 46.1936 11.59C46.6751 11.3317 47.0684 11.0088 47.3737 10.6213C47.5029 10.4686 47.6497 10.4451 47.8141 10.5508C47.9785 10.6565 48.002 10.7974 47.8845 10.9735C47.6497 11.3258 47.3796 11.6546 47.0743 11.9599C46.7807 12.2652 46.4167 12.5177 45.9822 12.7173C45.5595 12.9052 45.037 12.9991 44.4146 12.9991ZM42.2481 7.83825H45.9118C45.9353 7.2746 45.8942 6.76966 45.7885 6.32344C45.6945 5.87722 45.5243 5.52494 45.2777 5.2666C45.0428 5.00827 44.7023 4.8791 44.2561 4.8791C43.6924 4.8791 43.2521 5.14918 42.935 5.68934C42.618 6.21776 42.389 6.93406 42.2481 7.83825Z" fill="#757575"/>
<path d="M25.2235 12.7878C25.0473 12.7878 24.9593 12.688 24.9593 12.4883C24.9593 12.3005 25.0473 12.2065 25.2235 12.2065C25.6227 12.2065 25.8928 12.1184 26.0337 11.9423C26.1864 11.7662 26.2627 11.4667 26.2627 11.044V5.97116C26.2627 5.72457 26.2451 5.53081 26.2099 5.3899C26.1746 5.24899 26.0807 5.17266 25.928 5.16092C25.8458 5.14918 25.7225 5.13156 25.5581 5.10808C25.3937 5.08459 25.2704 5.06698 25.1882 5.05524C25.0238 5.03175 24.9417 4.93781 24.9417 4.77341C24.9417 4.58553 25.0297 4.49159 25.2059 4.49159C25.2411 4.49159 25.3703 4.49159 25.5934 4.49159C25.8282 4.47985 26.0866 4.47398 26.3684 4.47398C26.6619 4.47398 26.9262 4.47398 27.161 4.47398C27.4076 4.46223 27.5661 4.45636 27.6366 4.45636C27.9302 4.45636 28.0769 4.60902 28.0769 4.91433V5.83025C28.2179 5.5954 28.3881 5.36055 28.5877 5.12569C28.7991 4.8791 29.0516 4.6736 29.3451 4.5092C29.6505 4.33307 30.0203 4.245 30.4548 4.245C30.8306 4.245 31.2005 4.30371 31.5645 4.42113C31.9285 4.52682 32.2397 4.70883 32.498 4.96717C32.7681 5.22551 32.9325 5.58366 32.9912 6.04162C33.0734 5.85374 33.2026 5.61888 33.3787 5.33706C33.5666 5.05524 33.8308 4.80277 34.1714 4.57966C34.5119 4.35655 34.9464 4.245 35.4748 4.245C36.285 4.245 36.9192 4.45636 37.3771 4.8791C37.8351 5.30183 38.0641 5.98291 38.0641 6.92232V11.0088C38.0641 11.455 38.1286 11.7662 38.2578 11.9423C38.387 12.1184 38.5631 12.2065 38.7862 12.2065C38.9741 12.2065 39.0681 12.3005 39.0681 12.4883C39.0681 12.688 38.9741 12.7878 38.7862 12.7878C38.6571 12.7878 38.4222 12.7819 38.0817 12.7702C37.7411 12.7467 37.4182 12.7349 37.1129 12.7349C36.9133 12.7349 36.6843 12.7408 36.426 12.7525C36.1794 12.7525 35.9504 12.7584 35.739 12.7702C35.5276 12.7819 35.375 12.7878 35.2811 12.7878C35.1049 12.7878 35.0168 12.688 35.0168 12.4883C35.0168 12.3005 35.1049 12.2065 35.2811 12.2065C35.6098 12.2065 35.8388 12.1184 35.968 11.9423C36.0972 11.7662 36.1618 11.4667 36.1618 11.044V7.22176C36.1618 6.52894 36.0561 6.04749 35.8447 5.77741C35.6333 5.50733 35.3045 5.37229 34.8583 5.37229C34.5295 5.37229 34.2301 5.48384 33.96 5.70695C33.7017 5.93006 33.4903 6.2295 33.3259 6.60527C33.1732 6.98103 33.0969 7.39203 33.0969 7.83825V11.0088C33.0969 11.455 33.1674 11.7662 33.3083 11.9423C33.4609 12.1184 33.6841 12.2065 33.9776 12.2065C34.1655 12.2065 34.2594 12.3005 34.2594 12.4883C34.2594 12.688 34.1655 12.7878 33.9776 12.7878C33.8954 12.7878 33.7428 12.7819 33.5197 12.7702C33.3083 12.7584 33.0793 12.7525 32.8327 12.7525C32.5861 12.7408 32.3571 12.7349 32.1458 12.7349C31.9461 12.7349 31.7113 12.7408 31.4412 12.7525C31.1711 12.7525 30.9245 12.7584 30.7014 12.7702C30.4783 12.7819 30.3198 12.7878 30.2258 12.7878C30.0497 12.7878 29.9616 12.688 29.9616 12.4883C29.9616 12.3005 30.0497 12.2065 30.2258 12.2065C30.6016 12.2065 30.8541 12.1184 30.9832 11.9423C31.1242 11.7662 31.1946 11.4667 31.1946 11.044V7.22176C31.1946 6.55243 31.0772 6.07098 30.8423 5.77741C30.6075 5.48384 30.2669 5.33706 29.8207 5.33706C29.3275 5.33706 28.9283 5.54256 28.623 5.95355C28.3177 6.3528 28.165 6.85773 28.165 7.46835V11.0088C28.165 11.455 28.2413 11.7662 28.394 11.9423C28.5466 12.1184 28.7815 12.2065 29.0985 12.2065C29.2747 12.2065 29.3628 12.3005 29.3628 12.4883C29.3628 12.688 29.2747 12.7878 29.0985 12.7878C29.0164 12.7878 28.8637 12.7819 28.6406 12.7702C28.4175 12.7584 28.1767 12.7525 27.9184 12.7525C27.6601 12.7408 27.4252 12.7349 27.2139 12.7349C27.0142 12.7349 26.7735 12.7408 26.4917 12.7525C26.2099 12.7525 25.9515 12.7584 25.7167 12.7702C25.4818 12.7819 25.3174 12.7878 25.2235 12.7878Z" fill="#757575"/>
<path d="M19.2625 12.9991C18.4992 12.9991 17.8651 12.823 17.3601 12.4707C16.867 12.1184 16.6204 11.5313 16.6204 10.7093C16.6204 10.0165 16.8317 9.44699 17.2545 9.00077C17.6889 8.5428 18.2937 8.20814 19.0687 7.99677C19.8437 7.77366 20.7479 7.66798 21.7813 7.67972V6.99277C21.7813 6.35867 21.6697 5.85961 21.4466 5.49559C21.2235 5.11982 20.8653 4.93194 20.3721 4.93194C19.9142 4.93194 19.5678 5.02001 19.3329 5.19615C19.0981 5.36055 19.0393 5.57778 19.1568 5.84787C19.3447 6.24712 19.3388 6.60527 19.1392 6.92232C18.9395 7.22763 18.599 7.38028 18.1175 7.38028C17.824 7.38028 17.5774 7.28634 17.3778 7.09846C17.1781 6.89883 17.0783 6.62288 17.0783 6.2706C17.0783 5.91832 17.2251 5.58953 17.5187 5.28422C17.8122 4.97891 18.2115 4.73231 18.7164 4.54443C19.2331 4.34481 19.8144 4.245 20.4602 4.245C21.5288 4.245 22.3332 4.47985 22.8733 4.94955C23.4135 5.41926 23.6836 6.0651 23.6836 6.88709V10.6213C23.6836 11.091 23.7305 11.3963 23.8245 11.5372C23.9302 11.6663 24.0593 11.7309 24.212 11.7309C24.3294 11.7309 24.4292 11.7133 24.5114 11.6781C24.6054 11.6311 24.6758 11.5841 24.7228 11.5372C24.852 11.408 24.9811 11.4139 25.1103 11.5548C25.169 11.6135 25.1925 11.6781 25.1808 11.7485C25.169 11.819 25.1397 11.8895 25.0927 11.9599C24.9283 12.23 24.7228 12.459 24.4762 12.6469C24.2413 12.823 23.9536 12.9111 23.6131 12.9111C23.1786 12.9111 22.8087 12.7995 22.5034 12.5764C22.2099 12.3533 22.0044 12.0069 21.8869 11.5372C21.6756 11.9247 21.3703 12.2652 20.971 12.5588C20.5835 12.8524 20.014 12.9991 19.2625 12.9991ZM20.1432 11.9423C20.4837 11.9423 20.7773 11.8484 21.0239 11.6605C21.2704 11.4609 21.4583 11.226 21.5875 10.9559C21.7167 10.6858 21.7813 10.4275 21.7813 10.1809V8.29621C20.8536 8.27272 20.1079 8.41951 19.5443 8.73656C18.9806 9.05361 18.6988 9.61139 18.6988 10.4099C18.6988 10.8678 18.7869 11.2084 18.963 11.4315C19.1392 11.6429 19.3388 11.7838 19.5619 11.8542C19.7967 11.9129 19.9905 11.9423 20.1432 11.9423Z" fill="#757575"/>
<path d="M6.00973 12.7878C5.83359 12.7878 5.74552 12.688 5.74552 12.4883C5.74552 12.3005 5.83359 12.2065 6.00973 12.2065C6.40898 12.2065 6.67906 12.1184 6.81997 11.9423C6.97263 11.7662 7.04895 11.4667 7.04895 11.044V5.97116C7.04895 5.73631 7.03134 5.5543 6.99611 5.42513C6.96088 5.28422 6.86694 5.20202 6.71429 5.17854C6.63209 5.15505 6.50879 5.13744 6.34439 5.12569C6.18 5.10221 6.0567 5.08459 5.9745 5.07285C5.8101 5.04937 5.72791 4.95543 5.72791 4.79103C5.72791 4.60315 5.81598 4.5092 5.99211 4.5092C6.02734 4.5092 6.16238 4.50333 6.39724 4.49159C6.63209 4.47985 6.8963 4.47398 7.18987 4.47398C7.48343 4.46223 7.75351 4.45636 8.00011 4.45636C8.2467 4.45636 8.40523 4.45636 8.47569 4.45636C8.76925 4.4681 8.91603 4.62076 8.91603 4.91433V5.90071C9.08043 5.63063 9.29767 5.37229 9.56775 5.12569C9.84958 4.86736 10.1842 4.65599 10.5717 4.49159C10.9593 4.32719 11.3879 4.245 11.8576 4.245C12.292 4.245 12.6913 4.32719 13.0553 4.49159C13.4193 4.65599 13.7129 4.93194 13.936 5.31945C14.1591 5.70695 14.2707 6.24125 14.2707 6.92232V11.0088C14.2707 11.455 14.3353 11.7662 14.4644 11.9423C14.6053 12.1184 14.8226 12.2065 15.1162 12.2065C15.2923 12.2065 15.3804 12.3005 15.3804 12.4883C15.3804 12.688 15.2923 12.7878 15.1162 12.7878C15.034 12.7878 14.8872 12.7819 14.6758 12.7702C14.4644 12.7584 14.2355 12.7525 13.9889 12.7525C13.7423 12.7408 13.5133 12.7349 13.3019 12.7349C13.1023 12.7349 12.8792 12.7408 12.6326 12.7525C12.386 12.7525 12.157 12.7584 11.9456 12.7702C11.746 12.7819 11.5992 12.7878 11.5053 12.7878C11.3291 12.7878 11.2411 12.688 11.2411 12.4883C11.2411 12.3005 11.3291 12.2065 11.5053 12.2065C11.8693 12.2065 12.1042 12.1184 12.2098 11.9423C12.3155 11.7662 12.3684 11.4667 12.3684 11.044V7.16892C12.3684 6.49958 12.2451 6.02988 11.9985 5.7598C11.7519 5.47797 11.4055 5.33706 10.9593 5.33706C10.6305 5.33706 10.3075 5.44275 9.99049 5.65411C9.68518 5.85374 9.43271 6.12382 9.23309 6.46436C9.0452 6.80489 8.95126 7.18066 8.95126 7.59165V11.0088C8.95126 11.455 9.01585 11.7662 9.14502 11.9423C9.27419 12.1184 9.46794 12.2065 9.72628 12.2065C9.91416 12.2065 10.0081 12.3005 10.0081 12.4883C10.0081 12.688 9.91416 12.7878 9.72628 12.7878C9.59711 12.7878 9.35051 12.7819 8.98649 12.7702C8.63421 12.7467 8.30542 12.7349 8.00011 12.7349C7.80048 12.7349 7.55976 12.7408 7.27793 12.7525C6.99611 12.7525 6.73777 12.7584 6.50292 12.7702C6.26807 12.7819 6.10367 12.7878 6.00973 12.7878Z" fill="#757575"/>
<path d="M0.387507 12.7877C0.199625 12.7877 0.105684 12.6938 0.105684 12.5059C0.105684 12.3063 0.199625 12.2065 0.387507 12.2065C0.833728 12.2065 1.13317 12.1125 1.28582 11.9247C1.43847 11.7368 1.5148 11.4315 1.5148 11.0087V6.00636C1.5148 5.67757 1.47957 5.46033 1.40912 5.35465C1.3504 5.23722 1.23885 5.17264 1.07445 5.16089C0.992254 5.14915 0.851342 5.13741 0.651717 5.12567C0.463835 5.10218 0.328794 5.08457 0.246596 5.07282C0.0821986 5.0376 0 4.93778 0 4.77339C0 4.5855 0.0880698 4.49156 0.26421 4.49156C0.299437 4.49156 0.446221 4.49156 0.704559 4.49156C0.962897 4.47982 1.25059 4.47395 1.56764 4.47395C1.89644 4.47395 2.19588 4.47395 2.46596 4.47395C2.73604 4.46221 2.90631 4.45633 2.97676 4.45633C3.27033 4.45633 3.41711 4.59138 3.41711 4.86146V11.0087C3.41711 11.4315 3.48757 11.7368 3.62848 11.9247C3.76939 12.1125 4.02773 12.2065 4.40349 12.2065C4.57963 12.2065 4.6677 12.3063 4.6677 12.5059C4.6677 12.6938 4.57963 12.7877 4.40349 12.7877C4.32129 12.7877 4.16277 12.7819 3.92792 12.7701C3.69306 12.7584 3.4406 12.7525 3.17052 12.7525C2.90043 12.7408 2.65971 12.7349 2.44834 12.7349C2.24872 12.7349 2.00212 12.7408 1.70856 12.7525C1.41499 12.7525 1.13904 12.7584 0.880699 12.7701C0.634103 12.7819 0.469706 12.7877 0.387507 12.7877ZM2.32504 2.53641C1.97277 2.53641 1.67333 2.41311 1.42673 2.16652C1.18014 1.91992 1.05684 1.62049 1.05684 1.26821C1.05684 0.915926 1.18014 0.616488 1.42673 0.369892C1.67333 0.123297 1.97277 0 2.32504 0C2.67732 0 2.97676 0.123297 3.22336 0.369892C3.46995 0.616488 3.59325 0.915926 3.59325 1.26821C3.59325 1.62049 3.46995 1.91992 3.22336 2.16652C2.97676 2.41311 2.67732 2.53641 2.32504 2.53641Z" fill="#757575"/>
</svg>
